<svg width="128" height="128" viewBox="0 0 128 128" fill="none" xmlns="http://www.w3.org/2000/svg">
<g clip-path="url(#clip0)">
<path d="M96.2322 110.951C89.948 117.05 83.0146 116.099 76.4058 113.224C69.3796 110.29 62.9563 110.105 55.5359 113.224C46.2952 117.212 41.3907 116.053 35.8254 110.951C4.40468 78.6027 9.04243 29.3266 44.7531 27.4715C53.4141 27.9353 59.478 32.26 64.5795 32.6194C72.1622 31.0773 79.4203 26.6599 87.5364 27.2396C97.2872 28.028 104.58 31.8774 109.45 38.7992C89.3915 50.8573 94.1452 77.2925 112.569 84.7129C108.882 94.3942 104.151 103.96 96.2206 111.032L96.2322 110.951ZM63.8838 27.1237C62.9447 12.7466 74.597 0.920363 88.0001 -0.239075C89.8437 16.3409 72.9275 28.7469 63.8838 27.1237Z" fill="black"/>
</g>
<defs>
<clipPath id="clip0">
<rect width="128" height="128" fill="white"/>
</clipPath>
</defs>
</svg>
