<svg width="128" height="128" viewBox="0 0 128 128" fill="none" xmlns="http://www.w3.org/2000/svg">
<path d="M64 122C96.0325 122 122 96.0325 122 64C122 31.9675 96.0325 6 64 6C31.9675 6 6 31.9675 6 64C6 96.0325 31.9675 122 64 122Z" fill="#1977F3"/>
<path d="M85.9003 80.7695L88.4695 64H72.3851V53.1194C72.3851 48.5355 74.6281 44.0577 81.8384 44.0577H89.1547V29.784C89.1547 29.784 82.5154 28.6503 76.1697 28.6503C62.9237 28.6503 54.2617 36.6761 54.2617 51.219V64H39.5312V80.7695H54.2617V121.299C57.2143 121.763 60.2403 122 63.3234 122C66.4065 122 69.4325 121.755 72.3851 121.299V80.7695H85.9003Z" fill="white"/>
</svg>
