<svg width="128" height="128" viewBox="0 0 128 128" fill="none" xmlns="http://www.w3.org/2000/svg">
<circle cx="64" cy="64" r="58" fill="#1B1F23"/>
<path fill-rule="evenodd" clip-rule="evenodd" d="M64 6C31.955 6 6 31.9878 6 64.0733C6 89.7707 22.6025 111.476 45.6575 119.17C48.5575 119.678 49.645 117.936 49.645 116.412C49.645 115.033 49.5725 110.459 49.5725 105.596C35 108.282 31.23 102.039 30.07 98.7721C29.4175 97.1025 26.59 91.9485 24.125 90.5692C22.095 89.4803 19.195 86.7945 24.0525 86.7219C28.62 86.6493 31.8825 90.9322 32.97 92.6744C38.19 101.458 46.5275 98.9898 49.8625 97.4654C50.37 93.6907 51.8925 91.15 53.56 89.6981C40.655 88.2463 27.17 83.2375 27.17 61.0244C27.17 54.709 29.4175 49.4824 33.115 45.4172C32.535 43.9654 30.505 38.0129 33.695 30.0278C33.695 30.0278 38.5525 28.5034 49.645 35.9803C54.285 34.6737 59.215 34.0204 64.145 34.0204C69.075 34.0204 74.005 34.6737 78.645 35.9803C89.7375 28.4308 94.595 30.0278 94.595 30.0278C97.785 38.0129 95.755 43.9654 95.175 45.4172C98.8725 49.4824 101.12 54.6364 101.12 61.0244C101.12 83.3101 87.5625 88.2463 74.6575 89.6981C76.76 91.5129 78.5725 94.9973 78.5725 100.442C78.5725 108.209 78.5 114.452 78.5 116.412C78.5 117.936 79.5875 119.751 82.4875 119.17C105.398 111.476 122 89.6981 122 64.0733C122 31.9878 96.045 6 64 6Z" fill="white"/>
</svg>
