<svg width="128" height="128" viewBox="0 0 128 128" fill="none" xmlns="http://www.w3.org/2000/svg">
<path d="M121 31.7748C116.879 33.6023 112.451 34.8375 107.802 35.393C112.547 32.549 116.19 28.0459 117.906 22.6805C113.466 25.3134 108.548 27.2258 103.314 28.2565C99.1227 23.7907 93.151 21 86.5421 21C73.8518 21 63.5633 31.2881 63.5633 43.9776C63.5633 45.7786 63.7669 47.5324 64.1585 49.2141C45.0613 48.2558 28.13 39.1079 16.7969 25.2061C14.819 28.5998 13.6858 32.547 13.6858 36.758C13.6858 44.7298 17.7428 51.763 23.9083 55.8835C20.1414 55.7643 16.5986 54.7307 13.5002 53.0097C13.4986 53.1055 13.4986 53.2018 13.4986 53.2985C13.4986 64.4317 21.4192 73.7189 31.9309 75.8296C30.0026 76.3548 27.9727 76.6354 25.8768 76.6354C24.3963 76.6354 22.9567 76.4916 21.554 76.2233C24.4778 85.3524 32.9637 91.9956 43.0187 92.1812C35.1546 98.3439 25.2467 102.017 14.4814 102.017C12.6268 102.017 10.7976 101.909 9 101.697C19.1689 108.216 31.2472 112.02 44.2235 112.02C86.4885 112.02 109.6 77.0066 109.6 46.6421C109.6 45.6458 109.578 44.6548 109.534 43.6696C114.023 40.4299 117.919 36.3827 121 31.7748Z" fill="white"/>
</svg>
